PathFileType	4	(X/Y/Z)	RBDS05static.trc
DataRate	CameraRate	NumFrames	NumMarkers	Units	OrigDataRate	OrigDataStartFrame	OrigNumFrames
150.000000	150.000000	4	48	mm	150.000000	37	150
Frame#	Time	L.Ankle			L.Ankle.Medial			L.ASIS			L.GTR			L.Heel.Bottom			L.Heel.Lateral			L.Heel.Top			L.HF			L.Iliac.Crest			L.Knee			L.Knee.Medial			L.MT1			L.MT2			L.MT5			L.PSIS			L.Shank.Bottom.Lateral			L.Shank.Bottom.Medial			L.Shank.Top.Lateral			L.Shank.Top.Medial			L.Thigh.Bottom.Lateral			L.Thigh.Bottom.Medial			L.Thigh.Top.Lateral			L.Thigh.Top.Medial			L.TT			R.Ankle			R.Ankle.Medial			R.ASIS			R.GTR			R.Heel.Bottom			R.Heel.Lateral			R.Heel.Top			R.HF			R.Iliac.Crest			R.Knee			R.Knee.Medial			R.MT1			R.MT2			R.MT5			R.PSIS			R.Shank.Bottom.Lateral			R.Shank.Bottom.Medial			R.Shank.Top.Lateral			R.Shank.Top.Medial			R.Thigh.Bottom.Lateral			R.Thigh.Bottom.Medial			R.Thigh.Top.Lateral			R.Thigh.Top.Medial			R.TT			
		X1	Y1	Z1	X2	Y2	Z2	X3	Y3	Z3	X4	Y4	Z4	X5	Y5	Z5	X6	Y6	Z6	X7	Y7	Z7	X8	Y8	Z8	X9	Y9	Z9	X10	Y10	Z10	X11	Y11	Z11	X12	Y12	Z12	X13	Y13	Z13	X14	Y14	Z14	X15	Y15	Z15	X16	Y16	Z16	X17	Y17	Z17	X18	Y18	Z18	X19	Y19	Z19	X20	Y20	Z20	X21	Y21	Z21	X22	Y22	Z22	X23	Y23	Z23	X24	Y24	Z24	X25	Y25	Z25	X26	Y26	Z26	X27	Y27	Z27	X28	Y28	Z28	X29	Y29	Z29	X30	Y30	Z30	X31	Y31	Z31	X32	Y32	Z32	X33	Y33	Z33	X34	Y34	Z34	X35	Y35	Z35	X36	Y36	Z36	X37	Y37	Z37	X38	Y38	Z38	X39	Y39	Z39	X40	Y40	Z40	X41	Y41	Z41	X42	Y42	Z42	X43	Y43	Z43	X44	Y44	Z44	X45	Y45	Z45	X46	Y46	Z46	X47	Y47	Z47	X48	Y48	Z48	

38	0.2466666666666667	700.1595458984375	104.8292465209961	1043.668090820313	726.1913452148438	110.0182113647461	1122.670166015625	832.97607421875	979.0286254882813	1107.003540039063	753.6749877929688	888.7665405273438	1059.195678710938	637.7354736328125	38.20790100097656	1080.541748046875	671.2705688476563	57.37870025634766	1039.898803710938	648.794189453125	87.40587615966797	1082.85205078125	731.9444580078125	449.5711364746094	1050.928955078125	760.9094848632813	1038.255737304688	1067.666259765625	741.195068359375	500.7514038085938	1058.15234375	742.4996337890625	488.4431457519531	1175.638793945313	840.9359741210938	56.93846130371094	1127.27490234375	851.3303833007813	66.87184143066406	1074.53759765625	820.4845581054688	50.92525482177734	1022.153686523438	674.4789428710938	1002.7607421875	1170.955200195313	709.6217041015625	185.3724670410156	1037.870483398438	669.5023803710938	182.7218322753906	1069.3876953125	706.0301513671875	265.7629699707031	1033.043212890625	665.3786010742188	267.4442749023438	1067.049194335938	756.31640625	631.01708984375	1043.317993164063	694.0089721679688	624.247802734375	1081.1337890625	739.93505859375	740.6134643554688	1043.546752929688	686.4563598632813	734.2620849609375	1086.288696289063	789.2550659179688	422.0169677734375	1097.644653320313	692.6537475585938	107.1725845336914	1408.738525390625	716.4481201171875	118.47216796875	1334.596557617188	825.6312255859375	987.6632080078125	1337.055053710938	741.9945678710938	894.0750122070313	1383.652221679688	631.0425415039063	39.36508941650391	1371.548828125	659.0496826171875	53.77076721191406	1409.641235351563	640.8273315429688	87.25965118408203	1371.890625	720.8894653320313	460.7183227539063	1389.773315429688	766.3968505859375	1030.941284179688	1362.644409179688	734.2025146484375	513.9400024414063	1384.411254882813	756.0316772460938	491.7850952148438	1273.493774414063	834.6547241210938	58.19682312011719	1329.201049804688	841.5056762695313	72.72452545166016	1370.104858398438	814.9467163085938	52.67240142822266	1434.468017578125	676.3377075195313	1010.51708984375	1259.132446289063	693.0438842773438	195.4849853515625	1411.98388671875	657.00537109375	193.9866333007813	1370.5908203125	687.6586303710938	276.5126342773438	1410.983154296875	653.9609985351563	273.7863464355469	1369.327026367188	752.947509765625	607.8770751953125	1399.884521484375	689.931396484375	601.6778564453125	1361.398193359375	738.6597290039063	717.7207641601563	1400.481323242188	680.6024780273438	711.6276245117188	1360.898559570313	783.220458984375	429.5162048339844	1355.8583984375	
39	0.2533333333333334	700.15087890625	104.8104934692383	1043.669189453125	726.2005004882813	110.0058746337891	1122.656005859375	832.9963989257813	979.0299072265625	1106.995727539063	753.6982421875	888.7631225585938	1059.175415039063	637.7422485351563	38.21299362182617	1080.547241210938	671.2769165039063	57.380126953125	1039.890625	648.791748046875	87.411376953125	1082.85693359375	731.9527587890625	449.5765380859375	1050.854125976563	760.9351196289063	1038.25439453125	1067.658447265625	741.2085571289063	500.7582702636719	1058.152221679688	742.5156860351563	488.4474792480469	1175.617797851563	840.9495239257813	56.95201110839844	1127.267944335938	851.3367309570313	66.87186431884766	1074.536865234375	820.4918823242188	50.91234588623047	1022.150817871094	674.4942016601563	1002.76025390625	1170.940063476563	709.632080078125	185.3749542236328	1037.849853515625	669.5152587890625	182.7284088134766	1069.368530273438	706.0537719726563	265.7520751953125	1033.04150390625	665.390380859375	267.4465026855469	1067.033447265625	756.3445434570313	631.0142211914063	1043.301391601563	694.0319213867188	624.2430419921875	1081.115478515625	739.9591064453125	740.6115112304688	1043.521728515625	686.4763793945313	734.2637329101563	1086.27099609375	789.240234375	421.9470520019531	1097.425170898438	692.6514282226563	107.1804046630859	1408.72900390625	716.4474487304688	118.4743347167969	1334.5966796875	825.6365966796875	987.666015625	1337.06005859375	742.0084838867188	894.0665893554688	1383.634155273438	631.0387573242188	39.36897277832031	1371.554321289063	659.05419921875	53.7740592956543	1409.638061523438	640.8297729492188	87.25908660888672	1371.894287109375	720.9044799804688	460.7206115722656	1389.7783203125	766.4002075195313	1030.955932617188	1362.636352539063	734.228515625	513.9458618164063	1384.423095703125	756.0580444335938	491.7805786132813	1273.509521484375	834.6571044921875	58.19086456298828	1329.207397460938	841.5017700195313	72.72589874267578	1370.104858398438	814.9478759765625	52.66789245605469	1434.473876953125	676.35009765625	1010.529235839844	1259.115966796875	693.0465698242188	195.4816589355469	1411.989868164063	657.0217895507813	193.9940643310547	1370.593139648438	687.673828125	276.5070190429688	1410.98583984375	653.9720458984375	273.7916870117188	1369.332153320313	752.9635009765625	607.892333984375	1399.899536132813	689.9437866210938	601.686279296875	1361.402099609375	738.6763916015625	717.7267456054688	1400.468383789063	680.616943359375	711.6222534179688	1360.902709960938	783.2363891601563	429.507080078125	1355.863891601563	
40	0.26	700.1691284179688	104.8166046142578	1043.663208007813	726.2001953125	110.0062103271484	1122.65576171875	833.017333984375	979.0321044921875	1107.001098632813	753.7222290039063	888.7635498046875	1059.180908203125	637.7362670898438	38.21931457519531	1080.5439453125	671.2880249023438	57.37527465820313	1039.895263671875	648.7943725585938	87.40898895263672	1082.861206054688	731.9594116210938	449.5773315429688	1050.851684570313	760.9471435546875	1038.251220703125	1067.648315429688	741.2353515625	500.756591796875	1058.133422851563	742.52978515625	488.4421997070313	1175.620849609375	840.9578857421875	56.93846893310547	1127.2578125	851.3395385742188	66.86753845214844	1074.527221679688	820.4991455078125	50.91071701049805	1022.15283203125	674.5165405273438	1002.758666992188	1170.9306640625	709.64208984375	185.3736877441406	1037.852172851563	669.5177001953125	182.7380676269531	1069.363891601563	706.060546875	265.7510375976563	1033.029663085938	665.4051513671875	267.4498291015625	1067.020385742188	756.3633422851563	631.0114135742188	1043.29541015625	694.049560546875	624.2403564453125	1081.106811523438	739.9738159179688	740.6135864257813	1043.522705078125	686.4930419921875	734.2649536132813	1086.263549804688	789.2820434570313	422.0165710449219	1097.641479492188	692.6567993164063	107.17431640625	1408.725952148438	716.44970703125	118.4718704223633	1334.597412109375	825.6563720703125	987.6678466796875	1337.048217773438	742.0191650390625	894.0814208984375	1383.631958007813	631.0390014648438	39.37681198120117	1371.5546875	659.0543212890625	53.78069305419922	1409.633911132813	640.8327026367188	87.26417541503906	1371.888427734375	720.9058837890625	460.7239685058594	1389.780151367188	766.4056396484375	1030.961303710938	1362.626098632813	734.2435913085938	513.9491577148438	1384.420532226563	756.0654296875	491.7902526855469	1273.512329101563	834.666259765625	58.1873779296875	1329.21240234375	841.5179443359375	72.72579956054688	1370.109252929688	814.9481201171875	52.66797637939453	1434.476440429688	676.3604125976563	1010.511962890625	1259.102661132813	693.05029296875	195.4898529052734	1411.993896484375	657.0284423828125	193.993896484375	1370.608276367188	687.690673828125	276.5028686523438	1410.985229492188	653.9678955078125	273.7978210449219	1369.331420898438	752.9775390625	607.8901977539063	1399.898803710938	689.952880859375	601.687255859375	1361.39990234375	738.6885986328125	717.7319946289063	1400.4794921875	680.6240844726563	711.6365966796875	1360.902465820313	783.25732421875	429.5126037597656	1355.868530273438	
41	0.2666666666666667	700.1544799804688	104.817626953125	1043.666625976563	726.2044067382813	110.0038833618164	1122.654296875	833.0375366210938	979.0293579101563	1106.978759765625	753.740966796875	888.7600708007813	1059.159545898438	637.7347412109375	38.22026062011719	1080.547241210938	671.2781982421875	57.37635803222656	1039.89404296875	648.7958374023438	87.41824340820313	1082.85107421875	731.9603271484375	449.6161804199219	1050.865112304688	760.9658813476563	1038.24365234375	1067.638916015625	741.2316284179688	500.7585754394531	1058.131225585938	742.5355834960938	488.4497375488281	1175.607177734375	840.96533203125	56.93657302856445	1127.24853515625	851.3457641601563	66.86441040039063	1074.525024414063	820.49658203125	50.90583038330078	1022.143310546875	674.5402221679688	1002.753784179688	1170.908203125	709.6551513671875	185.3699798583984	1037.834838867188	669.5259399414063	182.7388000488281	1069.356689453125	706.0877075195313	265.7086181640625	1033.006713867188	665.4012451171875	267.4545593261719	1067.017211914063	756.3663330078125	631.0164184570313	1043.276733398438	694.0654907226563	624.2487182617188	1081.084350585938	740.0631713867188	740.5413818359375	1043.512084960938	686.5133666992188	734.2714233398438	1086.234130859375	789.266357421875	421.9505920410156	1097.402954101563	692.6539306640625	107.184211730957	1408.744995117188	716.4397583007813	118.4772872924805	1334.594604492188	825.668701171875	987.6677856445313	1337.043701171875	742.0357666015625	894.0784301757813	1383.618896484375	631.0380249023438	39.37942123413086	1371.548583984375	659.0497436523438	53.77592086791992	1409.639038085938	640.8345336914063	87.2640380859375	1371.884887695313	720.9249877929688	460.7229614257813	1389.771484375	766.4165649414063	1030.964477539063	1362.6181640625	734.23583984375	513.9537963867188	1384.421264648438	756.06494140625	491.7974548339844	1273.50390625	834.666015625	58.19136810302734	1329.203735351563	841.5159301757813	72.72210693359375	1370.1064453125	814.9490966796875	52.66473007202148	1434.467651367188	676.3876953125	1010.527587890625	1259.091064453125	693.0586547851563	195.4863891601563	1411.98779296875	657.0255126953125	193.9983215332031	1370.601196289063	687.6912841796875	276.5102844238281	1410.981323242188	653.9837036132813	273.8023986816406	1369.33447265625	752.9901733398438	607.897216796875	1399.896484375	689.9613647460938	601.6986083984375	1361.398193359375	738.7081298828125	717.7339477539063	1400.462280273438	680.6453247070313	711.6345825195313	1360.89208984375	783.249267578125	429.5081481933594	1355.856323242188	
